<svg viewBox="0 0 15 16" fill="none" xmlns="http://www.w3.org/2000/svg">
  <path d="M14.736 4.271c-1.1-1-3.716-3.137-6.438-3.635l2.267 4.073a.781.781 0 01-.379 1.1l-.527.222a.774.774 0 01-.937-.273L7.501 3.982 6.279 5.758c-.21.3-.6.416-.937.273l-.527-.222a.783.783 0 01-.38-1.1L6.704.636C3.981 1.131 1.368 3.268.265 4.271a.811.811 0 00-.106 1.082c.682.94 1.982 3 2.585 5.787.837 3.876 3.065 4.496 3.065 4.496v-1.693h3.377v1.693s2.228-.623 3.065-4.495a15.764 15.764 0 012.585-5.788.804.804 0 00-.1-1.082zm-8.957 6.39a.708.708 0 010-1.417.708.708 0 010 1.416zM7.6 12.334a.708.708 0 010-1.416.708.708 0 010 1.416zm0-3.49a.708.708 0 010-1.416.708.708 0 010 1.416zm1.773 1.815a.708.708 0 010-1.416.708.708 0 010 1.416z" />
</svg>