<svg viewBox="0 0 15 16" fill="none" xmlns="http://www.w3.org/2000/svg">
  <path d="M14.66 5.056h-2.64V.984L9.09 4.116 7.329.044 5.57 4.116 2.64.984v4.072H0l2.639 2.819s-.587 3.445 1.172 4.072c1.76.626 2.639 3.758 2.639 3.758h1.759s.88-3.132 2.639-3.758c1.759-.627 1.172-4.072 1.172-4.072l2.64-2.82zm-8.187 5.481h-.196c-.27 0-.534-.1-.739-.291-.513-.473-1.413-1.497-1.413-2.841 0 0 1.217.373 1.912.97.275.239.434.6.434.981v1.181h.002zm2.815-.291a1.076 1.076 0 01-.739.291h-.196v-1.18c0-.38.158-.74.434-.981.694-.602 1.911-.971 1.911-.971.003 1.344-.897 2.368-1.41 2.84z" />
</svg>