<svg viewBox="0 0 17 15" fill="none" xmlns="http://www.w3.org/2000/svg">
  <path d="M8.425 10.107c.576 0 1.042-.88 1.042-1.966 0-1.087-.466-1.967-1.042-1.967-.575 0-1.041.88-1.041 1.967 0 1.086.466 1.966 1.041 1.966z" />
  <path d="M11.512 0v3.84s.106.07.267.206a5.274 5.274 0 00-3.358-1.199c-1.147 0-2.206.37-3.073.99V0c-1.597.524-2.655 2.193-3.29 3.604a8.75 8.75 0 00-.76 3.605v1.048c.82.031 1.806.864 1.946.987a5.296 5.296 0 0010.361 0c0 .007 0 .01-.003.017 0 0 1.082-.97 1.963-1.004V7.21a8.83 8.83 0 00-.76-3.605C14.167 2.193 13.108.524 11.512 0zM8.425 10.95a2.809 2.809 0 11-.001-5.618 2.809 2.809 0 010 5.618zM2.326 10.107s.456 2.382 1.138 3.183a.61.61 0 01.147.394V15S.723 13.595 0 12.112l2.326-2.005zM14.647 10.107s-.456 2.382-1.137 3.183a.624.624 0 00-.148.394V15s2.889-1.405 3.612-2.888l-2.327-2.005z" />
</svg>